<svg width="218" height="44" viewBox="0 0 218 44" fill="none" xmlns="http://www.w3.org/2000/svg">
<g clip-path="url(#clip0_176_9383)">
<rect width="44" height="44" fill="#D9D9D9"/>
<path d="M44 0H0V44H44V0Z" fill="url(#paint0_linear_176_9383)"/>
<path style="mix-blend-mode:multiply" d="M44.0016 29.2065C44.0016 39.1926 34.7413 47.2855 23.3211 47.2855C11.9009 47.2855 2.64062 39.1926 2.64062 29.2065C2.64062 19.2204 11.9009 11.123 23.3211 11.123C34.7413 11.123 44.0016 19.2204 44.0016 29.2065Z" fill="url(#paint1_radial_176_9383)"/>
<path d="M23.4127 22.2782C23.1136 22.3068 22.8186 22.3232 22.5317 22.3355V22.3437C22.2818 22.356 22.0319 22.3642 21.7819 22.3642C16.9512 22.3642 12.354 20.0902 9.39982 16.2715C8.68279 17.9309 8.28125 19.7583 8.28125 21.68C8.28125 29.2846 14.4354 35.4429 22.0442 35.4429C29.6529 35.4429 35.7661 29.2887 35.7661 21.68H26.3464C25.3835 21.975 24.4042 22.1757 23.4168 22.2782H23.4127Z" fill="white"/>
<path d="M22.1914 21.2852C22.4332 21.2852 22.6708 21.2771 22.9126 21.2689H22.4537C22.8921 21.2689 23.3264 21.2443 23.7566 21.2074C24.953 21.0845 26.1044 20.8181 27.1984 20.4289C32.4347 18.5032 36.1797 13.488 36.1797 7.58789H22.4578C17.0493 7.58789 12.3783 10.6814 10.1289 15.1843C12.8577 18.8842 17.246 21.2893 22.1955 21.2893L22.1914 21.2852Z" fill="white"/>
</g>
<path d="M63.5966 27.5L60.3125 15.8636H62.5795L64.6761 24.4148H64.7841L67.0227 15.8636H69.0852L71.3295 24.4205H71.4318L73.5284 15.8636H75.7955L72.5114 27.5H70.4318L68.1023 19.3352H68.0114L65.6761 27.5H63.5966ZM80.0824 27.6705C79.2301 27.6705 78.4915 27.483 77.8665 27.108C77.2415 26.733 76.7566 26.2083 76.4119 25.5341C76.071 24.8598 75.9006 24.072 75.9006 23.1705C75.9006 22.2689 76.071 21.4792 76.4119 20.8011C76.7566 20.1231 77.2415 19.5966 77.8665 19.2216C78.4915 18.8466 79.2301 18.6591 80.0824 18.6591C80.9347 18.6591 81.6733 18.8466 82.2983 19.2216C82.9233 19.5966 83.4063 20.1231 83.7472 20.8011C84.0919 21.4792 84.2642 22.2689 84.2642 23.1705C84.2642 24.072 84.0919 24.8598 83.7472 25.5341C83.4063 26.2083 82.9233 26.733 82.2983 27.108C81.6733 27.483 80.9347 27.6705 80.0824 27.6705ZM80.0938 26.0227C80.5559 26.0227 80.9422 25.8958 81.2528 25.642C81.5634 25.3845 81.7945 25.0398 81.946 24.608C82.1013 24.1761 82.179 23.6951 82.179 23.1648C82.179 22.6307 82.1013 22.1477 81.946 21.7159C81.7945 21.2803 81.5634 20.9337 81.2528 20.6761C80.9422 20.4186 80.5559 20.2898 80.0938 20.2898C79.6203 20.2898 79.2263 20.4186 78.9119 20.6761C78.6013 20.9337 78.3684 21.2803 78.2131 21.7159C78.0616 22.1477 77.9858 22.6307 77.9858 23.1648C77.9858 23.6951 78.0616 24.1761 78.2131 24.608C78.3684 25.0398 78.6013 25.3845 78.9119 25.642C79.2263 25.8958 79.6203 26.0227 80.0938 26.0227ZM86.0099 27.5V18.7727H88.0043V20.2273H88.0952C88.2543 19.7235 88.527 19.3352 88.9134 19.0625C89.3035 18.786 89.7486 18.6477 90.2486 18.6477C90.3622 18.6477 90.4891 18.6534 90.6293 18.6648C90.7732 18.6723 90.8925 18.6856 90.9872 18.7045V20.5966C90.9001 20.5663 90.7618 20.5398 90.5724 20.517C90.3868 20.4905 90.2069 20.4773 90.0327 20.4773C89.6577 20.4773 89.3205 20.5587 89.0213 20.7216C88.7259 20.8807 88.4929 21.1023 88.3224 21.3864C88.152 21.6705 88.0668 21.9981 88.0668 22.3693V27.5H86.0099ZM94.2287 24.7614L94.223 22.2784H94.5526L97.6889 18.7727H100.092L96.2344 23.0682H95.8082L94.2287 24.7614ZM92.3537 27.5V15.8636H94.4105V27.5H92.3537ZM97.831 27.5L94.9901 23.5284L96.3764 22.0795L100.291 27.5H97.831ZM105.884 18.7727V20.3636H100.724V18.7727H105.884ZM102.014 27.5V17.9489C102.014 17.3617 102.135 16.8731 102.378 16.483C102.624 16.0928 102.954 15.8011 103.366 15.608C103.779 15.4148 104.238 15.3182 104.741 15.3182C105.098 15.3182 105.414 15.3466 105.69 15.4034C105.967 15.4602 106.171 15.5114 106.304 15.5568L105.895 17.1477C105.808 17.1212 105.698 17.0947 105.565 17.0682C105.433 17.0379 105.285 17.0227 105.122 17.0227C104.74 17.0227 104.469 17.1155 104.31 17.3011C104.154 17.483 104.077 17.7443 104.077 18.0852V27.5H102.014ZM109.551 15.8636V27.5H107.494V15.8636H109.551ZM115.473 27.6705C114.621 27.6705 113.882 27.483 113.257 27.108C112.632 26.733 112.147 26.2083 111.803 25.5341C111.462 24.8598 111.291 24.072 111.291 23.1705C111.291 22.2689 111.462 21.4792 111.803 20.8011C112.147 20.1231 112.632 19.5966 113.257 19.2216C113.882 18.8466 114.621 18.6591 115.473 18.6591C116.325 18.6591 117.064 18.8466 117.689 19.2216C118.314 19.5966 118.797 20.1231 119.138 20.8011C119.482 21.4792 119.655 22.2689 119.655 23.1705C119.655 24.072 119.482 24.8598 119.138 25.5341C118.797 26.2083 118.314 26.733 117.689 27.108C117.064 27.483 116.325 27.6705 115.473 27.6705ZM115.484 26.0227C115.946 26.0227 116.333 25.8958 116.643 25.642C116.954 25.3845 117.185 25.0398 117.337 24.608C117.492 24.1761 117.57 23.6951 117.57 23.1648C117.57 22.6307 117.492 22.1477 117.337 21.7159C117.185 21.2803 116.954 20.9337 116.643 20.6761C116.333 20.4186 115.946 20.2898 115.484 20.2898C115.011 20.2898 114.617 20.4186 114.303 20.6761C113.992 20.9337 113.759 21.2803 113.604 21.7159C113.452 22.1477 113.376 22.6307 113.376 23.1648C113.376 23.6951 113.452 24.1761 113.604 24.608C113.759 25.0398 113.992 25.3845 114.303 25.642C114.617 25.8958 115.011 26.0227 115.484 26.0227ZM122.952 27.5L120.486 18.7727H122.582L124.116 24.9091H124.196L125.764 18.7727H127.838L129.406 24.875H129.491L131.003 18.7727H133.105L130.634 27.5H128.491L126.855 21.6023H126.736L125.099 27.5H122.952ZM138.601 15.8636H141.18L144.635 24.2955H144.771L148.226 15.8636H150.805V27.5H148.783V19.5057H148.675L145.459 27.4659H143.947L140.732 19.4886H140.624V27.5H138.601V15.8636ZM155.521 27.6761C154.968 27.6761 154.47 27.5777 154.027 27.3807C153.588 27.1799 153.239 26.8845 152.982 26.4943C152.728 26.1042 152.601 25.6231 152.601 25.0511C152.601 24.5587 152.692 24.1515 152.874 23.8295C153.055 23.5076 153.304 23.25 153.618 23.0568C153.932 22.8636 154.286 22.7178 154.68 22.6193C155.078 22.517 155.489 22.4432 155.913 22.3977C156.425 22.3447 156.839 22.2973 157.158 22.2557C157.476 22.2102 157.707 22.142 157.851 22.0511C157.999 21.9564 158.072 21.8106 158.072 21.6136V21.5795C158.072 21.1515 157.946 20.8201 157.692 20.5852C157.438 20.3504 157.072 20.233 156.595 20.233C156.091 20.233 155.692 20.3428 155.396 20.5625C155.105 20.7822 154.908 21.0417 154.805 21.3409L152.885 21.0682C153.036 20.5379 153.286 20.0947 153.635 19.7386C153.983 19.3788 154.41 19.1098 154.913 18.9318C155.417 18.75 155.974 18.6591 156.584 18.6591C157.004 18.6591 157.423 18.7083 157.839 18.8068C158.256 18.9053 158.637 19.0682 158.982 19.2955C159.326 19.5189 159.603 19.8239 159.811 20.2102C160.023 20.5966 160.129 21.0795 160.129 21.6591V27.5H158.152V26.3011H158.084C157.959 26.5436 157.783 26.7708 157.555 26.983C157.332 27.1913 157.05 27.3598 156.709 27.4886C156.372 27.6136 155.976 27.6761 155.521 27.6761ZM156.055 26.1648C156.468 26.1648 156.826 26.0833 157.129 25.9205C157.432 25.7538 157.665 25.5341 157.828 25.2614C157.995 24.9886 158.078 24.6913 158.078 24.3693V23.3409C158.014 23.3939 157.904 23.4432 157.749 23.4886C157.597 23.5341 157.427 23.5739 157.237 23.608C157.048 23.642 156.86 23.6723 156.675 23.6989C156.489 23.7254 156.328 23.7481 156.192 23.767C155.885 23.8087 155.61 23.8769 155.368 23.9716C155.125 24.0663 154.934 24.1989 154.794 24.3693C154.654 24.536 154.584 24.7519 154.584 25.017C154.584 25.3958 154.722 25.6818 154.999 25.875C155.275 26.0682 155.627 26.1648 156.055 26.1648ZM163.879 18.7727L165.641 21.9943L167.43 18.7727H169.607L166.976 23.1364L169.652 27.5H167.487L165.641 24.358L163.811 27.5H161.629L164.288 23.1364L161.697 18.7727H163.879ZM171.197 27.5V18.7727H173.254V27.5H171.197ZM172.232 17.5341C171.906 17.5341 171.625 17.4261 171.391 17.2102C171.156 16.9905 171.038 16.7273 171.038 16.4205C171.038 16.1098 171.156 15.8466 171.391 15.6307C171.625 15.411 171.906 15.3011 172.232 15.3011C172.561 15.3011 172.841 15.411 173.072 15.6307C173.307 15.8466 173.425 16.1098 173.425 16.4205C173.425 16.7273 173.307 16.9905 173.072 17.2102C172.841 17.4261 172.561 17.5341 172.232 17.5341ZM175.369 27.5V18.7727H177.335V20.2557H177.438C177.619 19.7557 177.92 19.3655 178.341 19.0852C178.761 18.8011 179.263 18.6591 179.847 18.6591C180.438 18.6591 180.936 18.803 181.341 19.0909C181.75 19.375 182.038 19.7633 182.205 20.2557H182.295C182.489 19.7708 182.814 19.3845 183.273 19.0966C183.735 18.8049 184.282 18.6591 184.915 18.6591C185.718 18.6591 186.373 18.9129 186.881 19.4205C187.388 19.928 187.642 20.6686 187.642 21.642V27.5H185.58V21.9602C185.58 21.4186 185.436 21.0227 185.148 20.7727C184.86 20.5189 184.508 20.392 184.091 20.392C183.595 20.392 183.206 20.5473 182.926 20.858C182.65 21.1648 182.511 21.5644 182.511 22.0568V27.5H180.494V21.875C180.494 21.4242 180.358 21.0644 180.085 20.7955C179.816 20.5265 179.464 20.392 179.028 20.392C178.733 20.392 178.464 20.4678 178.222 20.6193C177.979 20.767 177.786 20.9773 177.642 21.25C177.498 21.5189 177.426 21.8333 177.426 22.1932V27.5H175.369ZM189.729 27.5V18.7727H191.786V27.5H189.729ZM190.763 17.5341C190.437 17.5341 190.157 17.4261 189.922 17.2102C189.687 16.9905 189.57 16.7273 189.57 16.4205C189.57 16.1098 189.687 15.8466 189.922 15.6307C190.157 15.411 190.437 15.3011 190.763 15.3011C191.092 15.3011 191.373 15.411 191.604 15.6307C191.839 15.8466 191.956 16.1098 191.956 16.4205C191.956 16.7273 191.839 16.9905 191.604 17.2102C191.373 17.4261 191.092 17.5341 190.763 17.5341ZM193.787 27.5V26.1932L198.287 20.5511V20.4773H193.935V18.7727H200.804V20.1761L196.52 25.7216V25.7955H200.952V27.5H193.787ZM206.499 27.6705C205.624 27.6705 204.868 27.4886 204.232 27.125C203.599 26.7576 203.112 26.2386 202.771 25.5682C202.43 24.8939 202.26 24.1004 202.26 23.1875C202.26 22.2898 202.43 21.5019 202.771 20.8239C203.116 20.142 203.597 19.6117 204.214 19.233C204.832 18.8504 205.557 18.6591 206.391 18.6591C206.929 18.6591 207.436 18.7462 207.913 18.9205C208.394 19.0909 208.819 19.3561 209.186 19.7159C209.557 20.0758 209.849 20.5341 210.061 21.0909C210.273 21.6439 210.379 22.303 210.379 23.0682V23.6989H203.226V22.3125H208.408C208.404 21.9186 208.319 21.5682 208.152 21.2614C207.985 20.9508 207.752 20.7064 207.453 20.5284C207.158 20.3504 206.813 20.2614 206.419 20.2614C205.999 20.2614 205.629 20.3636 205.311 20.5682C204.993 20.7689 204.745 21.0341 204.567 21.3636C204.393 21.6894 204.304 22.0473 204.3 22.4375V23.6477C204.3 24.1553 204.393 24.5909 204.578 24.9545C204.764 25.3144 205.023 25.5909 205.357 25.7841C205.69 25.9735 206.08 26.0682 206.527 26.0682C206.826 26.0682 207.097 26.0265 207.339 25.9432C207.582 25.8561 207.792 25.7292 207.97 25.5625C208.148 25.3958 208.283 25.1894 208.374 24.9432L210.294 25.1591C210.173 25.6667 209.942 26.1098 209.601 26.4886C209.264 26.8636 208.832 27.1553 208.305 27.3636C207.779 27.5682 207.177 27.6705 206.499 27.6705ZM212.119 27.5V18.7727H214.114V20.2273H214.205C214.364 19.7235 214.636 19.3352 215.023 19.0625C215.413 18.786 215.858 18.6477 216.358 18.6477C216.472 18.6477 216.598 18.6534 216.739 18.6648C216.883 18.6723 217.002 18.6856 217.097 18.7045V20.5966C217.009 20.5663 216.871 20.5398 216.682 20.517C216.496 20.4905 216.316 20.4773 216.142 20.4773C215.767 20.4773 215.43 20.5587 215.131 20.7216C214.835 20.8807 214.602 21.1023 214.432 21.3864C214.261 21.6705 214.176 21.9981 214.176 22.3693V27.5H212.119Z" fill="#4F6C9D"/>
<defs>
<linearGradient id="paint0_linear_176_9383" x1="54.8768" y1="54.6568" x2="-21.9296" y2="-21.6348" gradientUnits="userSpaceOnUse">
<stop offset="0.02" stop-color="#FF0053"/>
<stop offset="0.33" stop-color="#FC5329"/>
<stop offset="0.58" stop-color="#FB8F0B"/>
<stop offset="0.7" stop-color="#FBA700"/>
</linearGradient>
<radialGradient id="paint1_radial_176_9383" cx="0" cy="0" r="1" gradientUnits="userSpaceOnUse" gradientTransform="translate(23.245 29.2751) scale(20.6615 18.0578)">
<stop offset="0.15" stop-color="#960045"/>
<stop offset="0.34" stop-color="#B85482"/>
<stop offset="0.51" stop-color="#D69DB7"/>
<stop offset="0.65" stop-color="#ECD2DE"/>
<stop offset="0.76" stop-color="#F9F2F6"/>
<stop offset="0.82" stop-color="white"/>
</radialGradient>
<clipPath id="clip0_176_9383">
<rect width="44" height="44" rx="8" fill="white"/>
</clipPath>
</defs>
</svg>
